<svg width="29" height="38" viewBox="0 0 29 38" fill="none" xmlns="http://www.w3.org/2000/svg">
  <path fill-rule="evenodd" clip-rule="evenodd" d="m2.162 25.646-.006.008-.006.008c-.32.452-1.036.585-1.597.19-.449-.316-.584-1.021-.201-1.578.57-.725.984-1.573 1.256-2.402.283-.863.414-1.843.41-2.805-.006-.961-.148-1.94-.44-2.8-.281-.826-.704-1.669-1.282-2.388-.388-.553-.26-1.259.185-1.58.556-.4 1.274-.276 1.599.173l.006.008.006.008c.719.946 1.309 1.998 1.661 3.03.371 1.213.607 2.386.614 3.537.006 1.21-.11 2.357-.555 3.485-.485 1.228-.955 2.17-1.65 3.106Zm5.2 2.247.013-.02.013-.02a16.548 16.548 0 0 0-.093-17.625c-.35-.556-.193-1.213.399-1.64.397-.286 1.144-.185 1.586.408 1.83 2.896 2.934 6.397 2.954 10.017.02 3.744-1.047 7.131-2.847 10.049-.416.572-1.054.732-1.603.408-.596-.436-.705-1.178-.423-1.577Zm9.33-22.704.015.03.018.03c2.48 4.033 3.857 8.685 3.883 13.72.027 5.032-1.3 9.697-3.733 13.754-.373.599-1.002.768-1.641.471-.581-.378-.737-1.004-.434-1.637 2.07-3.668 3.357-7.99 3.332-12.575-.024-4.565-1.22-8.88-3.47-12.548-.305-.627-.154-1.25.42-1.633.693-.33 1.368-.088 1.61.388ZM24.03 1.35l.01.02.012.021c3.004 5.182 4.769 11.106 4.803 17.533.034 6.42-1.663 12.357-4.606 17.566-.374.592-1 .758-1.636.463-.58-.377-.736-1-.437-1.631 2.835-4.829 4.362-10.422 4.33-16.386-.032-5.978-1.753-11.55-4.5-16.331-.345-.698-.103-1.382.378-1.625.706-.356 1.4-.114 1.646.37Z" fill="url(#a)"/>
  <defs>
    <linearGradient id="a" x1="14.38" y1=".857" x2="14.573" y2="37.143" gradientUnits="userSpaceOnUse">
      <stop stop-color="#fff" stop-opacity=".73"/>
      <stop offset="1" stop-color="#fff"/>
    </linearGradient>
  </defs>
</svg>
