<svg width="77" height="24" viewBox="0 0 77 24" fill="none" xmlns="http://www.w3.org/2000/svg">
  <path d="M27.8855 23.3666L31.7335 0.839492H37.8859L34.0369 23.3666H27.8855ZM56.2374 1.33369C54.4717 0.695423 52.6066 0.375149 50.7287 0.38778C44.6569 0.38778 40.3794 3.43932 40.3425 7.81372C40.3091 11.0468 43.3969 12.8501 45.7279 13.9259C48.1201 15.0293 48.924 15.7327 48.9125 16.7176C48.8975 18.2256 47.0018 18.914 45.2362 18.914C42.7761 18.914 41.47 18.5693 39.4511 17.7337L38.6599 17.3762L37.7972 22.4127C39.2323 23.0402 41.887 23.585 44.6419 23.6126C51.1019 23.6126 55.2953 20.5967 55.3437 15.9257C55.3667 13.3661 53.7313 11.418 50.184 9.81239C48.036 8.77798 46.7208 8.07688 46.7346 7.02293C46.7346 6.08852 47.8483 5.08864 50.2542 5.08864C51.8306 5.05342 53.3969 5.34702 54.8531 5.95064L55.4036 6.21037L56.2374 1.33369V1.33369ZM72.0436 0.839492H67.31C65.8439 0.839492 64.7463 1.23948 64.1024 2.69915L55.0039 23.2517H61.48C61.48 23.2517 62.5166 20.5185 62.755 19.9186L70.5141 19.9278C70.6949 20.7047 71.2512 23.2517 71.2512 23.2517H77.0006L72.0436 0.839492ZM64.5171 15.3212C65.025 14.0248 66.9657 9.03198 66.9657 9.03198C66.9288 9.09175 67.4701 7.72863 67.7799 6.88387L68.1957 8.824C68.1957 8.824 69.3727 14.1949 69.618 15.3212H64.5171ZM22.6648 0.839492L16.6621 16.1476L16.0229 13.0363C14.9057 9.45038 11.4241 5.56561 7.53125 3.62092L13.0204 23.2517L19.5068 23.2448L29.1594 0.839492H22.6349" fill="url(#paint0_linear_17943_99496)"/>
  <path d="M10.79 0.839288H0.923212L0.84375 1.30705C8.55335 3.17013 13.6543 7.67098 15.7723 13.0775L13.6174 2.7334C13.2454 1.30937 12.1674 0.884108 10.8326 0.834686" fill="url(#paint1_linear_17943_99496)"/>
  <defs>
    <linearGradient id="paint0_linear_17943_99496" x1="42.2659" y1="0.387421" x2="42.2659" y2="23.6126" gradientUnits="userSpaceOnUse">
      <stop stop-color="white"/>
      <stop offset="1" stop-color="white" stop-opacity="0.75"/>
    </linearGradient>
    <linearGradient id="paint1_linear_17943_99496" x1="8.30801" y1="0.834686" x2="8.30801" y2="13.0775" gradientUnits="userSpaceOnUse">
      <stop stop-color="white"/>
      <stop offset="1" stop-color="white" stop-opacity="0.75"/>
    </linearGradient>
  </defs>
</svg>
