<svg width="53" height="33" viewBox="0 0 53 33" fill="none" xmlns="http://www.w3.org/2000/svg">
  <path d="M18.8535 3.90503H34.1685V28.925H18.8535V3.90503Z" fill="#F26122"/>
  <path d="M20.503 16.4152C20.4777 11.5455 22.6896 6.93383 26.503 3.90525C19.9784 -1.22581 10.606 -0.480722 4.97399 5.61676C-0.657995 11.7142 -0.657995 21.1163 4.97399 27.2137C10.606 33.3112 19.9784 34.0563 26.503 28.9252C22.6896 25.8967 20.4777 21.2849 20.503 16.4152Z" fill="#EA1D25"/>
  <path d="M52.2439 16.4153C52.24 22.5043 48.7622 28.0574 43.2857 30.719C37.8092 33.3806 31.2941 32.6843 26.5039 28.9253C33.404 23.4922 34.5989 13.4967 29.1739 6.59026C28.3962 5.59017 27.4996 4.68853 26.5039 3.90526C31.2941 0.146254 37.8092 -0.550123 43.2857 2.11152C48.7622 4.77316 52.24 10.3262 52.2439 16.4153Z" fill="#F69E1E"/>
</svg>
